<!-- Generated by IcoMoon.io -->
<svg version="1.1" xmlns="http://www.w3.org/2000/svg" width="217" height="150" viewBox="0 0 217 150">
<title>ClinicPlus-Logo</title>
<path fill="#be251d" d="M115.475 4.331c9.328 0 18.657 0.035 27.985-0.009 6.193-0.026 11.84 1.741 16.795 5.361 4.729 3.465 8.376 7.899 10.411 13.477 2.832 7.761 2.642 15.478-0.693 23.066-1.065 2.425-2.555 4.573-4.253 6.609-2.235 2.694-4.911 4.902-7.856 6.704-3.092 1.897-6.565 2.936-10.177 3.456-3.543 0.511-7.111 0.321-10.671 0.338-2.91 0.017-5.829 0-8.739 0-1.646 0-1.646 0-1.646 1.689 0 8.765 0 17.54 0 26.305 0 1.23 0 1.23-1.187 1.23-4.183 0-8.367-0.026-12.55 0.009-0.771 0.009-1.057-0.147-1.057-1.022 0.026-14.162 0.009-28.323-0.017-42.485 0-0.606 0.182-0.71 0.736-0.71 10.359-0.017 20.727-0.009 31.086-0.095 7.553-0.061 13.789-6.6 14.049-14.17 0.26-7.397-5.864-13.443-11.433-14.499-0.97-0.182-1.957-0.303-2.954-0.303-15.651 0.017-31.294-0.009-46.945 0.069-3.898 0.017-7.821-0.087-11.702 0.182-4.85 0.338-9.276 2.035-13.235 4.92-1.94 1.412-3.698 2.979-5.284 4.772-3.802 4.296-6.176 9.276-6.964 14.932-0.84 6.037-0.121 11.91 2.789 17.323 4.080 7.596 10.099 12.914 18.57 15.184 2.252 0.606 4.547 0.918 6.877 0.953 0.52 0.009 0.961 0.147 1.395 0.433 5.257 3.508 10.515 7.007 15.773 10.506 0.173 0.113 0.459 0.173 0.442 0.424-0.017 0.346-0.373 0.381-0.615 0.485-3.621 1.542-7.423 2.425-11.321 2.832-6.331 0.676-12.568 0.121-18.614-1.94-6.115-2.079-11.589-5.266-16.362-9.649-2.503-2.295-4.643-4.876-6.54-7.674-3.932-5.777-6.461-12.109-7.328-19.029-1.282-10.42 0.883-20.112 6.505-29.025 1.741-2.763 3.75-5.353 6.046-7.631 2.876-2.85 6.106-5.318 9.692-7.302 5.128-2.824 10.55-4.755 16.379-5.457 2.399-0.286 4.824-0.251 7.241-0.26 8.454-0.017 16.916 0 25.37 0z"></path>
<path fill="#000" d="M28.851 129.897c-0.442 0.658-0.97 1.282-1.594 1.871s-1.343 1.109-2.165 1.559c-0.823 0.45-1.724 0.806-2.72 1.065-0.987 0.26-2.079 0.39-3.248 0.39-1.957 0-3.768-0.346-5.439-1.031-1.663-0.684-3.101-1.637-4.296-2.85-1.204-1.213-2.139-2.65-2.806-4.313-0.676-1.663-1.013-3.491-1.013-5.474s0.346-3.811 1.031-5.474c0.684-1.663 1.637-3.101 2.85-4.313s2.642-2.157 4.296-2.85c1.654-0.684 3.447-1.031 5.379-1.031 0.953 0 1.888 0.104 2.806 0.294 0.918 0.199 1.784 0.476 2.59 0.84s1.542 0.797 2.2 1.299c0.658 0.502 1.213 1.074 1.654 1.715l-2.2 1.62c-0.269-0.416-0.632-0.831-1.083-1.247s-0.987-0.78-1.594-1.1c-0.615-0.321-1.282-0.572-2.001-0.771s-1.498-0.294-2.33-0.294c-1.689 0-3.205 0.303-4.539 0.918-1.334 0.606-2.469 1.438-3.395 2.469-0.927 1.039-1.637 2.243-2.131 3.603-0.494 1.368-0.736 2.806-0.736 4.322s0.251 2.954 0.754 4.322c0.502 1.368 1.221 2.572 2.148 3.603 0.927 1.039 2.061 1.862 3.395 2.469s2.832 0.918 4.495 0.918c1.49 0 2.91-0.303 4.262-0.918 1.343-0.615 2.469-1.594 3.378-2.936l2.053 1.325z"></path>
<path fill="#000" d="M36.049 131.768h12.117v2.347h-14.759v-26.002h2.642v23.655z"></path>
<path fill="#000" d="M54.775 134.115h-2.642v-26.002h2.642v26.002z"></path>
<path fill="#000" d="M80.119 130.26h0.069v-22.147h2.642v26.002h-3.309l-15.132-22.364h-0.069v22.364h-2.642v-26.002h3.309l15.132 22.147z"></path>
<path fill="#000" d="M92.384 134.115h-2.642v-26.002h2.642v26.002z"></path>
<path fill="#000" d="M121.175 129.897c-0.442 0.658-0.97 1.282-1.594 1.871s-1.343 1.109-2.165 1.559c-0.823 0.45-1.724 0.806-2.72 1.065-0.987 0.26-2.079 0.39-3.248 0.39-1.957 0-3.768-0.346-5.439-1.031-1.663-0.684-3.101-1.637-4.296-2.85-1.204-1.213-2.139-2.65-2.806-4.313-0.676-1.663-1.013-3.491-1.013-5.474s0.346-3.811 1.031-5.474c0.684-1.663 1.637-3.101 2.85-4.313s2.642-2.157 4.296-2.85c1.654-0.684 3.447-1.031 5.379-1.031 0.953 0 1.888 0.104 2.806 0.294 0.918 0.199 1.784 0.476 2.59 0.84s1.542 0.797 2.2 1.299c0.658 0.502 1.213 1.074 1.654 1.715l-2.2 1.62c-0.269-0.416-0.632-0.831-1.083-1.247s-0.987-0.78-1.594-1.1c-0.615-0.321-1.282-0.572-2.001-0.771s-1.498-0.294-2.33-0.294c-1.689 0-3.205 0.303-4.539 0.918-1.334 0.606-2.469 1.438-3.395 2.469-0.927 1.039-1.637 2.243-2.131 3.603-0.494 1.368-0.736 2.806-0.736 4.322s0.251 2.954 0.754 4.322c0.502 1.368 1.221 2.572 2.148 3.603 0.927 1.039 2.061 1.862 3.395 2.469s2.832 0.918 4.495 0.918c1.49 0 2.91-0.303 4.262-0.918 1.343-0.615 2.469-1.594 3.378-2.936l2.053 1.325z"></path>
<path fill="#000" d="M144.682 116.116c0 1.516-0.286 2.798-0.849 3.837s-1.325 1.88-2.278 2.512c-0.953 0.641-2.053 1.1-3.309 1.395s-2.546 0.442-3.889 0.442h-3.118v9.805h-6.28v-26.002h9.545c1.42 0 2.746 0.139 3.984 0.424s2.313 0.736 3.231 1.36c0.918 0.624 1.637 1.447 2.165 2.46 0.537 1.022 0.797 2.278 0.797 3.768zM138.402 116.159c0-0.615-0.121-1.117-0.364-1.507s-0.572-0.702-0.987-0.918c-0.416-0.217-0.883-0.364-1.412-0.442-0.528-0.069-1.074-0.113-1.637-0.113h-2.754v6.132h2.642c0.589 0 1.152-0.052 1.689-0.147s1.022-0.269 1.447-0.511c0.424-0.243 0.762-0.572 1.013-0.97 0.243-0.407 0.364-0.918 0.364-1.524z"></path>
<path fill="#000" d="M148.467 134.115v-26.002h6.314v20.528h10.065v5.474h-16.379z"></path>
<path fill="#000" d="M188.145 128.589c-0.528 1.282-1.282 2.391-2.261 3.309s-2.165 1.637-3.543 2.148c-1.386 0.511-2.919 0.771-4.608 0.771-1.715 0-3.257-0.26-4.625-0.771s-2.538-1.23-3.491-2.148c-0.953-0.918-1.689-2.018-2.2-3.309-0.511-1.282-0.771-2.711-0.771-4.279v-16.197h6.245v15.686c0 0.71 0.095 1.386 0.277 2.018 0.182 0.641 0.468 1.204 0.849 1.706s0.883 0.901 1.507 1.195 1.377 0.442 2.261 0.442c0.883 0 1.637-0.147 2.261-0.442s1.135-0.693 1.524-1.195c0.39-0.502 0.676-1.074 0.849-1.706s0.26-1.308 0.26-2.018v-15.686h6.28v16.197c-0.026 1.568-0.286 2.997-0.814 4.279z"></path>
<path fill="#000" d="M207.738 114.869c-0.537-0.684-1.239-1.23-2.113-1.637-0.866-0.407-1.706-0.606-2.512-0.606-0.416 0-0.84 0.035-1.265 0.113-0.424 0.069-0.814 0.217-1.161 0.424s-0.632 0.476-0.866 0.806c-0.234 0.329-0.346 0.754-0.346 1.265 0 0.442 0.095 0.806 0.277 1.1s0.45 0.554 0.806 0.771c0.355 0.217 0.78 0.424 1.265 0.606 0.494 0.182 1.039 0.373 1.654 0.572 0.883 0.294 1.802 0.615 2.754 0.97s1.828 0.823 2.607 1.412c0.78 0.589 1.429 1.317 1.949 2.183 0.511 0.866 0.771 1.949 0.771 3.248 0 1.49-0.277 2.789-0.823 3.872-0.554 1.091-1.291 1.992-2.226 2.702-0.927 0.71-1.992 1.239-3.196 1.576-1.204 0.346-2.434 0.511-3.707 0.511-1.862 0-3.664-0.329-5.396-0.97-1.741-0.65-3.188-1.576-4.331-2.772l4.114-4.183c0.632 0.788 1.472 1.438 2.512 1.966s2.079 0.788 3.101 0.788c0.468 0 0.918-0.052 1.36-0.147s0.823-0.26 1.161-0.476 0.598-0.511 0.788-0.883c0.199-0.364 0.294-0.806 0.294-1.325 0-0.494-0.121-0.91-0.364-1.247-0.243-0.346-0.598-0.658-1.048-0.935s-1.013-0.537-1.689-0.771c-0.676-0.234-1.438-0.485-2.295-0.754-0.831-0.269-1.646-0.589-2.442-0.953s-1.507-0.84-2.131-1.412c-0.624-0.572-1.126-1.273-1.507-2.096s-0.572-1.819-0.572-2.997c0-1.447 0.294-2.685 0.883-3.707 0.589-1.031 1.36-1.871 2.313-2.538 0.953-0.658 2.035-1.143 3.231-1.447s2.408-0.459 3.638-0.459c1.472 0 2.971 0.269 4.495 0.806 1.533 0.537 2.867 1.334 4.019 2.391l-4.002 4.235z"></path>
<path fill="#000" d="M130.027 140.498c0 0.407-0.069 0.788-0.217 1.126-0.139 0.346-0.338 0.641-0.589 0.892s-0.546 0.45-0.883 0.589-0.71 0.217-1.109 0.217c-0.398 0-0.771-0.069-1.109-0.217s-0.641-0.338-0.883-0.589c-0.251-0.251-0.45-0.546-0.589-0.892s-0.217-0.719-0.217-1.126c0-0.407 0.069-0.788 0.217-1.126 0.139-0.346 0.338-0.641 0.589-0.892s0.546-0.45 0.883-0.589c0.338-0.139 0.71-0.217 1.109-0.217s0.771 0.069 1.109 0.217c0.338 0.139 0.641 0.338 0.883 0.589 0.251 0.251 0.45 0.546 0.589 0.892 0.139 0.338 0.217 0.71 0.217 1.126zM129.446 140.498c0-0.312-0.052-0.615-0.156-0.892-0.104-0.286-0.251-0.528-0.442-0.745s-0.424-0.381-0.702-0.511c-0.277-0.13-0.589-0.191-0.927-0.191-0.346 0-0.65 0.061-0.927 0.191s-0.511 0.294-0.702 0.511c-0.191 0.217-0.338 0.459-0.442 0.745s-0.156 0.58-0.156 0.892c0 0.312 0.052 0.615 0.156 0.892 0.104 0.286 0.251 0.528 0.442 0.745 0.191 0.208 0.424 0.381 0.702 0.511s0.589 0.191 0.927 0.191c0.346 0 0.65-0.061 0.927-0.191s0.511-0.294 0.702-0.511c0.191-0.208 0.338-0.459 0.442-0.745 0.104-0.277 0.156-0.58 0.156-0.892z"></path>
<path fill="#000" d="M135.682 142.309c-0.095 0.139-0.199 0.269-0.329 0.39s-0.277 0.225-0.45 0.321c-0.173 0.095-0.355 0.165-0.563 0.217s-0.424 0.078-0.667 0.078c-0.407 0-0.78-0.069-1.126-0.217-0.346-0.139-0.641-0.338-0.883-0.589-0.251-0.251-0.442-0.546-0.58-0.892s-0.208-0.719-0.208-1.126c0-0.407 0.069-0.788 0.217-1.126 0.139-0.346 0.338-0.641 0.589-0.892s0.546-0.45 0.883-0.589c0.338-0.139 0.71-0.217 1.109-0.217 0.199 0 0.39 0.017 0.58 0.061s0.364 0.095 0.537 0.173c0.165 0.078 0.321 0.165 0.459 0.269s0.251 0.225 0.338 0.355l-0.459 0.338c-0.052-0.087-0.13-0.173-0.225-0.26s-0.199-0.165-0.329-0.225c-0.13-0.069-0.269-0.121-0.416-0.156-0.147-0.043-0.312-0.061-0.485-0.061-0.346 0-0.658 0.061-0.935 0.191s-0.511 0.294-0.702 0.511c-0.191 0.217-0.338 0.459-0.442 0.745s-0.156 0.58-0.156 0.892c0 0.312 0.052 0.606 0.156 0.892s0.251 0.528 0.442 0.745c0.191 0.217 0.424 0.381 0.702 0.511s0.589 0.191 0.927 0.191c0.312 0 0.598-0.061 0.883-0.191 0.277-0.13 0.511-0.329 0.702-0.606l0.433 0.269z"></path>
<path fill="#000" d="M141.053 142.309c-0.095 0.139-0.199 0.269-0.329 0.39s-0.277 0.225-0.45 0.321c-0.173 0.095-0.355 0.165-0.563 0.217s-0.424 0.078-0.667 0.078c-0.407 0-0.78-0.069-1.126-0.217-0.346-0.139-0.641-0.338-0.883-0.589-0.251-0.251-0.442-0.546-0.58-0.892s-0.208-0.719-0.208-1.126c0-0.407 0.069-0.788 0.217-1.126 0.139-0.346 0.338-0.641 0.589-0.892s0.546-0.45 0.883-0.589c0.338-0.139 0.71-0.217 1.109-0.217 0.199 0 0.39 0.017 0.58 0.061s0.364 0.095 0.537 0.173c0.165 0.078 0.321 0.165 0.459 0.269s0.251 0.225 0.338 0.355l-0.459 0.338c-0.052-0.087-0.13-0.173-0.225-0.26s-0.199-0.165-0.329-0.225c-0.13-0.069-0.269-0.121-0.416-0.156-0.147-0.043-0.312-0.061-0.485-0.061-0.346 0-0.658 0.061-0.935 0.191s-0.511 0.294-0.702 0.511c-0.191 0.217-0.338 0.459-0.442 0.745s-0.156 0.58-0.156 0.892c0 0.312 0.052 0.606 0.156 0.892s0.251 0.528 0.442 0.745c0.191 0.217 0.424 0.381 0.702 0.511s0.589 0.191 0.927 0.191c0.312 0 0.598-0.061 0.883-0.191 0.277-0.13 0.511-0.329 0.702-0.606l0.433 0.269z"></path>
<path fill="#000" d="M143.972 143.313c-0.407 0-0.736-0.069-0.996-0.208s-0.459-0.312-0.615-0.528c-0.156-0.217-0.26-0.442-0.312-0.693-0.061-0.251-0.087-0.485-0.087-0.71v-3.369h0.546v3.309c0 0.217 0.026 0.424 0.078 0.632s0.13 0.39 0.243 0.546 0.26 0.286 0.45 0.39c0.191 0.095 0.416 0.147 0.693 0.147s0.502-0.052 0.693-0.147c0.191-0.095 0.338-0.225 0.45-0.39s0.199-0.338 0.243-0.546c0.052-0.208 0.078-0.416 0.078-0.632v-3.309h0.546v3.369c0 0.225-0.026 0.459-0.087 0.71s-0.165 0.485-0.312 0.693c-0.156 0.217-0.355 0.39-0.615 0.528-0.269 0.139-0.598 0.208-0.996 0.208z"></path>
<path fill="#000" d="M147.376 137.813h1.516c0.277 0 0.52 0.026 0.745 0.087s0.416 0.147 0.572 0.269c0.156 0.121 0.286 0.269 0.364 0.45 0.087 0.182 0.13 0.39 0.13 0.632s-0.043 0.45-0.13 0.632c-0.087 0.182-0.217 0.329-0.373 0.45s-0.355 0.208-0.58 0.269c-0.225 0.061-0.476 0.095-0.745 0.095h-0.953v2.494h-0.546v-5.379zM147.921 140.221h0.927c0.433 0 0.754-0.087 0.979-0.251s0.338-0.407 0.338-0.728c0-0.338-0.113-0.58-0.346-0.728-0.234-0.156-0.554-0.234-0.97-0.234h-0.927v1.94z"></path>
<path fill="#000" d="M151.282 143.183h-0.598l2.321-5.37h0.528l2.304 5.37h-0.606l-0.589-1.412h-2.772l-0.589 1.412zM152.070 141.269h2.365l-1.187-2.85-1.178 2.85z"></path>
<path fill="#000" d="M157.891 143.183h-0.546v-4.885h-1.793v-0.485h4.14v0.485h-1.802v4.885z"></path>
<path fill="#000" d="M161.035 143.183h-0.546v-5.37h0.546v5.37z"></path>
<path fill="#000" d="M167.773 140.498c0 0.407-0.069 0.788-0.217 1.126-0.139 0.346-0.338 0.641-0.589 0.892s-0.546 0.45-0.883 0.589-0.71 0.217-1.109 0.217c-0.398 0-0.771-0.069-1.109-0.217s-0.641-0.338-0.883-0.589c-0.251-0.251-0.45-0.546-0.589-0.892s-0.217-0.719-0.217-1.126c0-0.407 0.069-0.788 0.217-1.126 0.139-0.346 0.338-0.641 0.589-0.892s0.546-0.45 0.883-0.589c0.338-0.139 0.71-0.217 1.109-0.217s0.771 0.069 1.109 0.217c0.338 0.139 0.641 0.338 0.883 0.589 0.251 0.251 0.45 0.546 0.589 0.892 0.147 0.338 0.217 0.71 0.217 1.126zM167.193 140.498c0-0.312-0.052-0.615-0.156-0.892-0.104-0.286-0.251-0.528-0.442-0.745s-0.424-0.381-0.702-0.511c-0.277-0.13-0.589-0.191-0.927-0.191-0.346 0-0.65 0.061-0.927 0.191s-0.511 0.294-0.702 0.511c-0.191 0.217-0.338 0.459-0.442 0.745s-0.156 0.58-0.156 0.892c0 0.312 0.052 0.615 0.156 0.892 0.104 0.286 0.251 0.528 0.442 0.745 0.191 0.208 0.424 0.381 0.702 0.511s0.589 0.191 0.927 0.191c0.346 0 0.65-0.061 0.927-0.191s0.511-0.294 0.702-0.511c0.191-0.208 0.338-0.459 0.442-0.745 0.104-0.277 0.156-0.58 0.156-0.892z"></path>
<path fill="#000" d="M172.719 142.386h0.017v-4.573h0.546v5.37h-0.684l-3.127-4.617h-0.017v4.617h-0.546v-5.37h0.684l3.127 4.573z"></path>
<path fill="#000" d="M174.668 143.183h-0.598l2.321-5.37h0.528l2.304 5.37h-0.606l-0.589-1.412h-2.772l-0.589 1.412zM175.456 141.269h2.365l-1.187-2.85-1.178 2.85z"></path>
<path fill="#000" d="M180.558 142.698h2.503v0.485h-3.049v-5.37h0.546v4.885z"></path>
<path fill="#000" d="M185.59 137.813h0.546v2.33h2.928v-2.33h0.546v5.37h-0.546v-2.538h-2.928v2.538h-0.546v-5.37z"></path>
<path fill="#000" d="M191.584 142.698h2.876v0.485h-3.421v-5.37h3.326v0.485h-2.78v1.845h2.598v0.485h-2.598v2.070z"></path>
<path fill="#000" d="M195.49 143.183h-0.598l2.321-5.37h0.528l2.304 5.37h-0.606l-0.589-1.412h-2.772l-0.589 1.412zM196.278 141.269h2.365l-1.187-2.85-1.178 2.85z"></path>
<path fill="#000" d="M201.38 142.698h2.503v0.485h-3.049v-5.37h0.546v4.885z"></path>
<path fill="#000" d="M205.694 143.183h-0.546v-4.885h-1.793v-0.485h4.14v0.485h-1.802v4.885z"></path>
<path fill="#000" d="M208.292 137.813h0.546v2.33h2.928v-2.33h0.546v5.37h-0.546v-2.538h-2.928v2.538h-0.546v-5.37z"></path>
</svg>
